<svg width="1042" height="1042" viewBox="0 0 1042 1042" fill="none" xmlns="http://www.w3.org/2000/svg">
<g opacity="0.5">
<path d="M1041.41 520.703C1041.41 808.28 808.28 1041.41 520.703 1041.41C233.127 1041.41 0 808.28 0 520.703C0 233.127 233.127 0 520.703 0C808.28 0 1041.41 233.127 1041.41 520.703ZM22.3208 520.703C22.3208 795.952 245.454 1019.09 520.703 1019.09C795.953 1019.09 1019.09 795.952 1019.09 520.703C1019.09 245.454 795.953 22.3208 520.703 22.3208C245.454 22.3208 22.3208 245.454 22.3208 520.703Z" fill="#F7FEE9"/>
<path d="M990.943 520.703C990.943 780.652 780.409 991.382 520.704 991.382C260.998 991.382 50.4648 780.652 50.4648 520.703C50.4648 260.754 260.998 50.0239 520.704 50.0239C780.409 50.0239 990.943 260.754 990.943 520.703ZM70.6224 520.703C70.6224 769.509 272.131 971.206 520.704 971.206C769.277 971.206 970.785 769.509 970.785 520.703C970.785 271.897 769.277 70.2003 520.704 70.2003C272.131 70.2003 70.6224 271.897 70.6224 520.703Z" fill="#F7FEE9"/>
<path d="M942.772 527.524C942.772 761.102 753.806 950.453 520.704 950.453C287.602 950.453 98.6357 761.102 98.6357 527.524C98.6357 293.947 287.602 104.595 520.704 104.595C753.806 104.595 942.772 293.947 942.772 527.524ZM116.728 527.524C116.728 751.089 297.594 932.324 520.704 932.324C743.813 932.324 924.679 751.089 924.679 527.524C924.679 303.96 743.813 122.725 520.704 122.725C297.594 122.725 116.728 303.96 116.728 527.524Z" fill="#F7FEE9"/>
<path d="M896.895 519.566C896.895 726.143 727.955 893.608 519.557 893.608C311.159 893.608 142.219 726.143 142.219 519.566C142.219 312.988 311.159 145.523 519.557 145.523C727.955 145.523 896.895 312.988 896.895 519.566ZM158.394 519.566C158.394 717.288 320.092 877.574 519.557 877.574C719.021 877.574 880.72 717.288 880.72 519.566C880.72 321.843 719.021 161.557 519.557 161.557C320.092 161.557 158.394 321.843 158.394 519.566Z" fill="#F7FEE9"/>
<path d="M841.843 519.566C841.843 696.005 697.551 839.037 519.557 839.037C341.564 839.037 197.271 696.005 197.271 519.566C197.271 343.128 341.564 200.096 519.557 200.096C697.551 200.096 841.843 343.128 841.843 519.566ZM211.087 519.566C211.087 688.442 349.194 825.343 519.557 825.343C689.921 825.343 828.027 688.442 828.027 519.566C828.027 350.691 689.921 213.79 519.557 213.79C349.194 213.79 211.087 350.691 211.087 519.566Z" fill="#F7FEE9"/>
<path d="M789.084 519.567C789.084 667.122 668.412 786.74 519.556 786.74C370.701 786.74 250.029 667.122 250.029 519.567C250.029 372.011 370.701 252.394 519.556 252.394C668.412 252.394 789.084 372.011 789.084 519.567ZM261.583 519.567C261.583 660.797 377.082 775.287 519.556 775.287C662.031 775.287 777.53 660.797 777.53 519.567C777.53 378.336 662.031 263.846 519.556 263.846C377.082 263.846 261.583 378.336 261.583 519.567Z" fill="#F7FEE9"/>
<path d="M752.383 519.566C752.383 647.029 648.143 750.358 519.557 750.358C390.971 750.358 286.731 647.029 286.731 519.566C286.731 392.103 390.971 288.774 519.557 288.774C648.143 288.774 752.383 392.103 752.383 519.566ZM296.712 519.566C296.712 641.565 396.483 740.465 519.557 740.465C642.631 740.465 742.402 641.565 742.402 519.566C742.402 397.567 642.631 298.667 519.557 298.667C396.483 298.667 296.712 397.567 296.712 519.566Z" fill="#F7FEE9"/>
<path d="M695.036 519.567C695.036 621.914 611.336 704.882 508.087 704.882C404.838 704.882 321.139 621.914 321.139 519.567C321.139 417.22 404.838 334.251 508.087 334.251C611.336 334.251 695.036 417.22 695.036 519.567ZM329.153 519.567C329.153 617.526 409.264 696.939 508.087 696.939C606.91 696.939 687.022 617.526 687.022 519.567C687.022 421.607 606.91 342.195 508.087 342.195C409.264 342.195 329.153 421.607 329.153 519.567Z" fill="#F7FEE9"/>
<path d="M651.453 526.388C651.453 604.875 587.266 668.501 508.087 668.501C428.909 668.501 364.722 604.875 364.722 526.388C364.722 447.901 428.909 384.275 508.087 384.275C587.266 384.275 651.453 447.901 651.453 526.388ZM370.867 526.388C370.867 601.511 432.303 662.41 508.087 662.41C583.872 662.41 645.307 601.511 645.307 526.388C645.307 451.266 583.872 390.367 508.087 390.367C432.303 390.367 370.867 451.266 370.867 526.388Z" fill="#F7FEE9"/>
<path d="M630.808 527.525C630.808 594.082 576.378 648.037 509.234 648.037C442.091 648.037 387.66 594.082 387.66 527.525C387.66 460.968 442.091 407.013 509.234 407.013C576.378 407.013 630.808 460.968 630.808 527.525ZM392.872 527.525C392.872 591.229 444.969 642.871 509.234 642.871C573.499 642.871 625.597 591.229 625.597 527.525C625.597 463.821 573.499 412.179 509.234 412.179C444.969 412.179 392.872 463.821 392.872 527.525Z" fill="#F7FEE9"/>
<path d="M594.107 526.389C594.107 573.481 555.595 611.657 508.088 611.657C460.581 611.657 422.068 573.481 422.068 526.389C422.068 479.296 460.581 441.121 508.088 441.121C555.595 441.121 594.107 479.296 594.107 526.389ZM425.756 526.389C425.756 571.462 462.617 608.001 508.088 608.001C553.558 608.001 590.42 571.462 590.42 526.389C590.42 481.315 553.558 444.776 508.088 444.776C462.617 444.776 425.756 481.315 425.756 526.389Z" fill="#F7FEE9"/>
<path d="M566.581 520.703C566.581 549.586 540.906 573.001 509.235 573.001C477.563 573.001 451.889 549.586 451.889 520.703C451.889 491.82 477.563 468.405 509.235 468.405C540.906 468.405 566.581 491.82 566.581 520.703ZM454.347 520.703C454.347 548.348 478.921 570.759 509.235 570.759C539.549 570.759 564.123 548.348 564.123 520.703C564.123 493.058 539.549 470.647 509.235 470.647C478.921 470.647 454.347 493.058 454.347 520.703Z" fill="#F7FEE9"/>
<path d="M541.348 520.703C541.348 537.028 526.97 550.263 509.234 550.263C491.498 550.263 477.12 537.028 477.12 520.703C477.12 504.378 491.498 491.144 509.234 491.144C526.97 491.144 541.348 504.378 541.348 520.703ZM478.497 520.703C478.497 536.329 492.258 548.996 509.234 548.996C526.21 548.996 539.971 536.329 539.971 520.703C539.971 505.078 526.21 492.411 509.234 492.411C492.258 492.411 478.497 505.078 478.497 520.703Z" fill="#F7FEE9"/>
</g>
</svg>
