<svg width="732" height="732" viewBox="0 0 732 732" fill="none" xmlns="http://www.w3.org/2000/svg">
<g opacity="0.5">
<path d="M731.25 365.625C731.25 567.554 567.554 731.249 365.625 731.249C163.696 731.249 0 567.554 0 365.625C0 163.696 163.696 0 365.625 0C567.554 0 731.25 163.696 731.25 365.625ZM15.6731 365.625C15.6731 558.898 172.352 715.576 365.625 715.576C558.898 715.576 715.577 558.898 715.577 365.625C715.577 172.352 558.898 15.6731 365.625 15.6731C172.352 15.6731 15.6731 172.352 15.6731 365.625Z" fill="#F4FFEE"/>
<path d="M695.815 365.625C695.815 548.155 547.983 696.124 365.625 696.124C183.266 696.124 35.4346 548.155 35.4346 365.625C35.4346 183.096 183.266 35.126 365.625 35.126C547.983 35.126 695.815 183.096 695.815 365.625ZM49.5887 365.625C49.5887 540.33 191.083 681.957 365.625 681.957C540.166 681.957 681.66 540.33 681.66 365.625C681.66 190.92 540.166 49.2933 365.625 49.2933C191.083 49.2933 49.5887 190.92 49.5887 365.625Z" fill="#F4FFEE"/>
<path d="M661.991 370.415C661.991 534.427 529.304 667.385 365.625 667.385C201.947 667.385 69.2598 534.427 69.2598 370.415C69.2598 206.402 201.947 73.4443 365.625 73.4443C529.304 73.4443 661.991 206.402 661.991 370.415ZM81.964 370.415C81.964 527.396 208.964 654.655 365.625 654.655C522.287 654.655 649.287 527.396 649.287 370.415C649.287 213.433 522.287 86.1744 365.625 86.1744C208.964 86.1744 81.964 213.433 81.964 370.415Z" fill="#F4FFEE"/>
<path d="M629.777 364.826C629.777 509.879 511.152 627.469 364.82 627.469C218.488 627.469 99.8623 509.879 99.8623 364.826C99.8623 219.772 218.488 102.183 364.82 102.183C511.152 102.183 629.777 219.772 629.777 364.826ZM111.22 364.826C111.22 503.661 224.76 616.21 364.82 616.21C504.879 616.21 618.419 503.661 618.419 364.826C618.419 225.99 504.879 113.441 364.82 113.441C224.76 113.441 111.22 225.99 111.22 364.826Z" fill="#F4FFEE"/>
<path d="M591.12 364.826C591.12 488.717 489.802 589.151 364.819 589.151C239.837 589.151 138.519 488.717 138.519 364.826C138.519 240.935 239.837 140.502 364.819 140.502C489.802 140.502 591.12 240.935 591.12 364.826ZM148.219 364.826C148.219 483.406 245.195 579.535 364.819 579.535C484.444 579.535 581.42 483.406 581.42 364.826C581.42 246.246 484.444 150.118 364.819 150.118C245.195 150.118 148.219 246.246 148.219 364.826Z" fill="#F4FFEE"/>
<path d="M554.075 364.827C554.075 468.437 469.342 552.429 364.82 552.429C260.297 552.429 175.564 468.437 175.564 364.827C175.564 261.217 260.297 177.225 364.82 177.225C469.342 177.225 554.075 261.217 554.075 364.827ZM183.677 364.827C183.677 463.995 264.777 544.387 364.82 544.387C464.862 544.387 545.962 463.995 545.962 364.827C545.962 265.658 464.862 185.266 364.82 185.266C264.777 185.266 183.677 265.658 183.677 364.827Z" fill="#F4FFEE"/>
<path d="M528.304 364.826C528.304 454.327 455.109 526.882 364.819 526.882C274.529 526.882 201.335 454.327 201.335 364.826C201.335 275.325 274.529 202.77 364.819 202.77C455.109 202.77 528.304 275.325 528.304 364.826ZM208.343 364.826C208.343 450.491 278.4 519.935 364.819 519.935C451.239 519.935 521.296 450.491 521.296 364.826C521.296 279.161 451.239 209.716 364.819 209.716C278.4 209.716 208.343 279.161 208.343 364.826Z" fill="#F4FFEE"/>
<path d="M488.037 364.827C488.037 436.693 429.266 494.951 356.767 494.951C284.268 494.951 225.496 436.693 225.496 364.827C225.496 292.962 284.268 234.703 356.767 234.703C429.266 234.703 488.037 292.962 488.037 364.827ZM231.123 364.827C231.123 433.612 287.376 489.373 356.767 489.373C426.158 489.373 482.41 433.612 482.41 364.827C482.41 296.042 426.158 240.281 356.767 240.281C287.376 240.281 231.123 296.042 231.123 364.827Z" fill="#F4FFEE"/>
<path d="M457.434 369.617C457.434 424.728 412.364 469.405 356.766 469.405C301.169 469.405 256.099 424.728 256.099 369.617C256.099 314.505 301.169 269.828 356.766 269.828C412.364 269.828 457.434 314.505 457.434 369.617ZM260.414 369.617C260.414 422.366 303.552 465.127 356.766 465.127C409.98 465.127 453.119 422.366 453.119 369.617C453.119 316.867 409.98 274.106 356.766 274.106C303.552 274.106 260.414 316.867 260.414 369.617Z" fill="#F4FFEE"/>
<path d="M442.937 370.415C442.937 417.149 404.718 455.035 357.571 455.035C310.425 455.035 272.205 417.149 272.205 370.415C272.205 323.68 310.425 285.794 357.571 285.794C404.718 285.794 442.937 323.68 442.937 370.415ZM275.864 370.415C275.864 415.146 312.446 451.408 357.571 451.408C402.697 451.408 439.278 415.146 439.278 370.415C439.278 325.683 402.697 289.421 357.571 289.421C312.446 289.421 275.864 325.683 275.864 370.415Z" fill="#F4FFEE"/>
<path d="M417.166 369.617C417.166 402.684 390.124 429.49 356.766 429.49C323.408 429.49 296.365 402.684 296.365 369.617C296.365 336.55 323.408 309.744 356.766 309.744C390.124 309.744 417.166 336.55 417.166 369.617ZM298.954 369.617C298.954 401.267 324.837 426.924 356.766 426.924C388.694 426.924 414.577 401.267 414.577 369.617C414.577 337.968 388.694 312.311 356.766 312.311C324.837 312.311 298.954 337.968 298.954 369.617Z" fill="#F4FFEE"/>
<path d="M397.839 365.624C397.839 385.906 379.811 402.347 357.572 402.347C335.333 402.347 317.305 385.906 317.305 365.624C317.305 345.343 335.333 328.902 357.572 328.902C379.811 328.902 397.839 345.343 397.839 365.624ZM319.031 365.624C319.031 385.036 336.286 400.772 357.572 400.772C378.857 400.772 396.113 385.036 396.113 365.624C396.113 346.213 378.857 330.476 357.572 330.476C336.286 330.476 319.031 346.213 319.031 365.624Z" fill="#F4FFEE"/>
<path d="M380.121 365.625C380.121 377.088 370.025 386.381 357.571 386.381C345.117 386.381 335.021 377.088 335.021 365.625C335.021 354.162 345.117 344.869 357.571 344.869C370.025 344.869 380.121 354.162 380.121 365.625ZM335.988 365.625C335.988 376.597 345.651 385.491 357.571 385.491C369.491 385.491 379.154 376.597 379.154 365.625C379.154 354.653 369.491 345.759 357.571 345.759C345.651 345.759 335.988 354.653 335.988 365.625Z" fill="#F4FFEE"/>
</g>
</svg>
